<svg xmlns="http://www.w3.org/2000/svg" width="1100" height="520" viewBox="0 0 1100 520"><defs><style>.bg{fill:#fff}.card{fill:#fff;stroke:#d1d5db}.bar{fill:#f9fafb;stroke:#d1d5db}.h{font:700 13px Segoe UI,Arial;fill:#111827}.t{font:400 13px Segoe UI,Arial;fill:#111827}.m{fill:#6b7280}.g{stroke:#e5e7eb}.chip{fill:#fff;stroke:#d1d5db}.ct{font:700 11px Segoe UI,Arial;fill:#374151}</style></defs><rect class="bg" width="1100" height="520"/><rect class="card" x="24" y="24" width="1052" height="472" rx="8"/><rect class="bar" x="24" y="24" width="1052" height="56" rx="8"/><text class="h" x="48" y="58">Appointments</text><text class="t m" x="160" y="58">Classic enterprise grid</text><rect class="bar" x="24" y="80" width="1052" height="44"/><text class="h m" x="48" y="108">Patient</text><text class="h m" x="280" y="108">Doctor</text><text class="h m" x="470" y="108">Date</text><text class="h m" x="610" y="108">Type</text><text class="h m" x="760" y="108">Status</text><text class="h m" x="920" y="108">Action</text><line class="g" x1="252" y1="80" x2="252" y2="496"/><line class="g" x1="444" y1="80" x2="444" y2="496"/><line class="g" x1="584" y1="80" x2="584" y2="496"/><line class="g" x1="734" y1="80" x2="734" y2="496"/><line class="g" x1="904" y1="80" x2="904" y2="496"/><line class="g" x1="24" y1="124" x2="1076" y2="124"/><line class="g" x1="24" y1="170" x2="1076" y2="170"/><line class="g" x1="24" y1="216" x2="1076" y2="216"/><line class="g" x1="24" y1="262" x2="1076" y2="262"/><text class="t" x="48" y="152">Yonis Khalif</text><text class="t" x="280" y="152">Dr. Ahmed</text><text class="t" x="470" y="152">Apr 25, 2026 • 10:00</text><text class="t" x="610" y="152">Follow-up</text><rect class="chip" x="760" y="136" width="92" height="24" rx="6"/><text class="ct" x="782" y="153">Pending</text><text class="t" x="920" y="152">View • Edit</text><text class="t" x="48" y="198">Sahra Mohamed</text><text class="t" x="280" y="198">Dr. Omar</text><text class="t" x="470" y="198">Mar 28, 2026 • 13:30</text><text class="t" x="610" y="198">Consult</text><rect class="chip" x="760" y="182" width="110" height="24" rx="6"/><text class="ct" x="782" y="199">Scheduled</text><text class="t" x="920" y="198">View • Edit</text></svg>